<?xml version="1.0" encoding="UTF-8"?>
<svg version="1.1" xmlns="http://www.w3.org/2000/svg" width="729" height="342">
<path d="M0 0 C240.57 0 481.14 0 729 0 C729 112.86 729 225.72 729 342 C488.43 342 247.86 342 0 342 C0 229.14 0 116.28 0 0 Z " fill="#FCFCFC" transform="translate(0,0)"/>
<path d="M0 0 C0 0.66 0 1.32 0 2 C1.32 1.34 2.64 0.68 4 0 C5.60856218 1.89224857 7.21186966 3.78856025 8.8125 5.6875 C9.26431641 6.21794922 9.71613281 6.74839844 10.18164062 7.29492188 C14.90550235 12.91528291 18.93188929 18.43971159 19 26 C17.18913786 32.46261811 14.22191767 38.75899875 10 44 C9.34 44 8.68 44 8 44 C8 45.32 8 46.64 8 48 C-13.11363762 52.1927791 -13.11363762 52.1927791 -22 48 C-24.0756456 45.9461574 -25.67961219 43.66318381 -27.3125 41.25 C-27.75400391 40.6415625 -28.19550781 40.033125 -28.65039062 39.40625 C-31.27762656 35.64041105 -32.6191396 32.68530154 -33 28 C-33.66 28 -34.32 28 -35 28 C-34.41363114 23.63480957 -33.33605176 19.92967417 -31.625 15.875 C-31.20476563 14.86179688 -30.78453125 13.84859375 -30.3515625 12.8046875 C-29.10851119 10.22517641 -27.90696668 8.1313157 -26 6 C-25.34 6 -24.68 6 -24 6 C-23.67 4.68 -23.34 3.36 -23 2 C-15.27111181 0.04596958 -7.94957992 -0.22428282 0 0 Z " fill="#E7E7E8" transform="translate(88,154)"/>
<path d="M0 0 C16.15384615 0 16.15384615 0 21.3125 3.625 C23.43275131 6.6090574 23.50291264 8.52549006 23.34375 12.11328125 C22.88633412 14.6238707 21.56438339 16.02751659 20 18 C20.20574205 22.01196998 21.91553084 24.64672352 24 28 C24 28.66 24 29.32 24 30 C20.8125 30.4375 20.8125 30.4375 17 30 C14.82857115 27.9521921 13.31305984 25.67452741 12 23 C12 22.34 12 21.68 12 21 C10.68 21 9.36 21 8 21 C8 23.97 8 26.94 8 30 C5.36 30 2.72 30 0 30 C0 20.1 0 10.2 0 0 Z " fill="#181819" transform="translate(363,164)"/>
<path d="M0 0 C2.64 0 5.28 0 8 0 C8 2.64 8 5.28 8 8 C9.19625 7.7525 10.3925 7.505 11.625 7.25 C15.20526409 6.79294501 15.96670196 6.98273435 19.375 8.75 C21.96549935 10.97042801 23.76972494 12.5942511 24.3359375 16.05078125 C24.43033903 21.51662972 23.8137192 24.77398683 20 29 C15.82346653 31.59622351 12.70655709 30.79772154 8 30 C5.36 30 2.72 30 0 30 C0 20.1 0 10.2 0 0 Z " fill="#121314" transform="translate(417,164)"/>
<path d="M0 0 C2.31 0 4.62 0 7 0 C7.33 2.64 7.66 5.28 8 8 C9.03125 7.7525 10.0625 7.505 11.125 7.25 C15.92403346 6.94038494 17.40792309 7.89775176 21 11 C23.1243216 13.39842761 23.95562638 14.96831344 24.09375 18.1796875 C23.84514844 21.97086133 23.48272057 24.35082405 21.1875 27.4375 C16.92986718 30.4786663 14.3349244 31.34792985 9 31 C8.34 30.67 7.68 30.34 7 30 C4.69 30 2.38 30 0 30 C0 20.1 0 10.2 0 0 Z " fill="#111112" transform="translate(188,164)"/>
<path d="M0 0 C2.5575 0.20625 5.115 0.4125 7.75 0.625 C7.75 7.885 7.75 15.145 7.75 22.625 C4.78 22.625 1.81 22.625 -1.25 22.625 C-1.58 22.955 -1.91 23.285 -2.25 23.625 C-7.16836486 23.85872395 -10.42387599 23.28252727 -14.3125 20.1875 C-16.7685361 16.65694811 -16.8971329 13.17052502 -16.67578125 8.96484375 C-15.93530312 4.89561075 -13.91108441 2.79893947 -10.625 0.4765625 C-7.07904029 -0.79485069 -3.68030638 -0.3243836 0 0 Z " fill="#141415" transform="translate(176.25,171.375)"/>
<path d="M0 0 C4.06025571 0.62689765 7.41434941 0.625 11.6875 0.625 C11.6875 7.885 11.6875 15.145 11.6875 22.625 C8.7175 22.625 5.7475 22.625 2.6875 22.625 C1.470625 22.8725 0.25375 23.12 -1 23.375 C-4.3125 23.625 -4.3125 23.625 -7.625 21.9375 C-10.68807867 19.30182766 -12.03324074 17.44018517 -12.6484375 13.44140625 C-12.71774911 9.44212634 -12.65361971 7.19759379 -10.5625 3.6875 C-7.07190365 0.48778668 -4.72761348 -0.75574638 0 0 Z " fill="#131314" transform="translate(650.3125,171.375)"/>
<path d="M0 0 C2.64 0 5.28 0 8 0 C8.02505615 0.6612085 8.0501123 1.32241699 8.07592773 2.00366211 C8.19153102 4.98182305 8.31441754 7.9596392 8.4375 10.9375 C8.47681641 11.97841797 8.51613281 13.01933594 8.55664062 14.09179688 C8.61948242 15.57583008 8.61948242 15.57583008 8.68359375 17.08984375 C8.72025146 18.00628662 8.75690918 18.92272949 8.79467773 19.86694336 C8.77003864 21.9820728 8.77003864 21.9820728 10 23 C11.66617115 23.04063832 13.33388095 23.042721 15 23 C16.20270964 20.59458071 16.20316663 18.89633409 16.31640625 16.2109375 C16.35830078 15.26992187 16.40019531 14.32890625 16.44335938 13.359375 C16.48267578 12.37453125 16.52199219 11.3896875 16.5625 10.375 C16.60568359 9.38242188 16.64886719 8.38984375 16.69335938 7.3671875 C16.79961069 4.91160162 16.90164964 2.45591297 17 0 C19.31 0 21.62 0 24 0 C24.11643304 3.89558088 24.18732909 7.79071258 24.25 11.6875 C24.30027344 13.34168945 24.30027344 13.34168945 24.3515625 15.02929688 C24.45069154 23.23222485 24.45069154 23.23222485 22.12890625 27.1875 C18.6415627 30.15654112 16.05129745 30.90613416 11.5 31.3125 C7.68311135 30.97170637 5.96426858 30.38788303 3 28 C0.40243361 24.36809792 -0.36745842 21.9250191 -0.29296875 17.48046875 C-0.28330078 16.45888672 -0.27363281 15.43730469 -0.26367188 14.38476562 C-0.23853516 13.32966797 -0.21339844 12.27457031 -0.1875 11.1875 C-0.17396484 10.11306641 -0.16042969 9.03863281 -0.14648438 7.93164062 C-0.11122577 5.28724545 -0.06194366 2.64388252 0 0 Z " fill="#0E0F0F" transform="translate(537,164)"/>
<path d="M0 0 C3.07039282 1.82917019 4.56060145 3.26101152 6.375 6.3125 C7.48573543 11.08866236 6.83117971 14.66417547 4.25 18.8125 C1.31891629 21.66216472 -0.78340429 22.92341031 -4.921875 23.06640625 C-9.04496615 22.8106506 -10.69274859 22.26149056 -13.9375 19.5 C-14.618125 18.675 -15.29875 17.85 -16 17 C-16.33 16.67 -16.66 16.34 -17 16 C-17.60524778 11.28700498 -17.42303456 7.83096075 -15.25 3.5625 C-10.69276949 -1.62767919 -6.42481048 -1.58325687 0 0 Z " fill="#181717" transform="translate(329,172)"/>
<path d="M0 0 C4.33976986 2.25334204 7.09688482 4.45366929 9 9 C9.58078261 12.48469568 9.62949497 14.79823687 7.96875 17.96875 C5.29136552 21.5980934 3.00698772 23.42340462 -1.5 24.125 C-5.7219603 24.26004587 -8.53789052 23.55536652 -12 21 C-14.93766429 16.69142571 -15.73747571 13.16232995 -15 8 C-11.31216367 1.82534684 -7.16551908 -0.72869686 0 0 Z " fill="#121213" transform="translate(459,171)"/>
<path d="M0 0 C2.93240144 2.17214922 4.43116413 4.53878485 4.9765625 8.1796875 C5.16220979 12.65209942 4.69308526 15.74348387 1.6875 19.25 C-2.60153951 22.31359965 -6.11780284 22.72166248 -11.19140625 21.96875 C-15.42403242 20.53448993 -17.36423743 17.14652514 -19.3125 13.25 C-19.48550428 9.42134002 -19.44015454 5.65791956 -16.9765625 2.58203125 C-11.30914492 -2.13160142 -6.81944224 -2.211711 0 0 Z " fill="#181819" transform="translate(304.3125,172.75)"/>
<path d="M0 0 C3.18563872 2.05296717 4.38205676 3.31586097 5.8125 6.8125 C6.35202431 11.84806026 5.85484376 14.75604166 2.8125 18.8125 C0.52619108 21.53461561 -1.03536992 22.29024644 -4.5625 22.6875 C-7.70301238 22.93731348 -9.08708838 22.85397436 -12.0625 21.625 C-16.18585991 18.10801655 -17.80644176 15.42863821 -18.31640625 9.83984375 C-18.09252985 6.31887858 -16.46647128 4.39133593 -14.1875 1.8125 C-9.44565075 -1.9310652 -5.58930007 -2.08228826 0 0 Z " fill="#151517" transform="translate(408.1875,172.1875)"/>
<path d="M0 0 C1.134375 0.020625 2.26875 0.04125 3.4375 0.0625 C3.7675 3.3625 4.0975 6.6625 4.4375 10.0625 C5.4275 9.4025 6.4175 8.7425 7.4375 8.0625 C13.56103923 8.39054674 13.56103923 8.39054674 16.3125 10.5 C19.07400765 14.33542729 18.54793051 18.1451621 18.5 22.6875 C18.49548828 23.48929688 18.49097656 24.29109375 18.48632812 25.1171875 C18.47453168 27.09899006 18.45659605 29.08075433 18.4375 31.0625 C16.1275 31.0625 13.8175 31.0625 11.4375 31.0625 C11.1075 26.1125 10.7775 21.1625 10.4375 16.0625 C8.7875 16.0625 7.1375 16.0625 5.4375 16.0625 C3.49659174 18.00340826 4.03830565 21.53543902 3.875 24.125 C3.79121094 25.41535156 3.70742188 26.70570313 3.62109375 28.03515625 C3.56050781 29.03417969 3.49992187 30.03320312 3.4375 31.0625 C0.7975 31.0625 -1.8425 31.0625 -4.5625 31.0625 C-4.58715622 26.80835377 -4.60533899 22.55424502 -4.61743164 18.30004883 C-4.62247101 16.85179927 -4.62930253 15.40355483 -4.63793945 13.95532227 C-4.65002247 11.87775412 -4.65573211 9.80025303 -4.66015625 7.72265625 C-4.66539307 6.47105713 -4.67062988 5.21945801 -4.67602539 3.92993164 C-4.50846074 -0.30242701 -4.35818563 0.0764594 0 0 Z " fill="#1B1B1C" transform="translate(263.5625,162.9375)"/>
<path d="M0 0 C2.76101146 1.82109266 4.52100548 3.04201097 6 6 C6.13415472 8.6723621 6.04318541 11.32250488 6 14 C1.38 14 -3.24 14 -8 14 C-8 14.66 -8 15.32 -8 16 C-7.31292969 15.95359375 -6.62585938 15.9071875 -5.91796875 15.859375 C-4.56638672 15.80523437 -4.56638672 15.80523437 -3.1875 15.75 C-2.29417969 15.70359375 -1.40085937 15.6571875 -0.48046875 15.609375 C2 16 2 16 3.82421875 18.015625 C4.21222656 18.67046875 4.60023438 19.3253125 5 20 C0.49673583 22.1615668 -2.90822185 23.75834994 -8 23 C-12.31646551 20.71481238 -15.0976625 18.54447291 -17 14 C-17.48379406 10.67391587 -17.73293508 8.27391097 -16.015625 5.2890625 C-11.32113164 -0.65150009 -7.34374648 -2.0545005 0 0 Z " fill="#1C1D1D" transform="translate(608,172)"/>
<path d="M0 0 C3.93351368 0.14843448 6.24759304 0.31925085 9.21484375 3.00390625 C11.63285607 7.06214575 11.45143114 10.19120484 11.25 14.8125 C11.23195313 15.60076172 11.21390625 16.38902344 11.1953125 17.20117188 C11.14844048 19.13464261 11.0767041 21.06748285 11 23 C8.69 23 6.38 23 4 23 C3.67 17.72 3.34 12.44 3 7 C1.02 7.66 -0.96 8.32 -3 9 C-3.33 13.62 -3.66 18.24 -4 23 C-6.31 23 -8.62 23 -11 23 C-11 15.74 -11 8.48 -11 1 C-7.66666667 1 -4.33333333 1 -1 1 C-0.67 0.67 -0.34 0.34 0 0 Z " fill="#101012" transform="translate(577,171)"/>
<path d="M0 0 C2.4375 1.375 2.4375 1.375 4 3 C4 3.99 4 4.98 4 6 C1.1875 6.625 1.1875 6.625 -2 7 C-2.99 6.34 -3.98 5.68 -5 5 C-5 5.99 -5 6.98 -5 8 C-3.72125 8.268125 -2.4425 8.53625 -1.125 8.8125 C2.49675855 9.57190099 2.80051868 9.70077803 5 13 C5.4375 15.4375 5.4375 15.4375 5 18 C1.90241421 20.93455496 -0.54765964 22.83862885 -4.8125 23.3125 C-8.69428088 22.93193325 -10.20472045 21.63085134 -13 19 C-12.67 17.68 -12.34 16.36 -12 15 C-8.37471432 14.79859524 -6.13498292 15.14223235 -3 17 C-3 16.01 -3 15.02 -3 14 C-4.093125 13.7525 -5.18625 13.505 -6.3125 13.25 C-10 12 -10 12 -12 10.1875 C-13.31559549 7.30963487 -13.06026221 5.95358758 -12 3 C-8.32746181 -1.47091605 -5.5220142 -1.1424857 0 0 Z " fill="#171718" transform="translate(630,172)"/>
<path d="M0 0 C1.5 1.625 1.5 1.625 1.5 4.625 C-2.56368679 5.39903558 -6.36425173 5.7234702 -10.5 5.625 C-11.51540112 9.72723585 -11.51540112 9.72723585 -10.5 13.625 C-9.88511719 13.60179687 -9.27023438 13.57859375 -8.63671875 13.5546875 C-7.82847656 13.53664062 -7.02023438 13.51859375 -6.1875 13.5 C-5.38699219 13.47679687 -4.58648437 13.45359375 -3.76171875 13.4296875 C-1.5 13.625 -1.5 13.625 1.5 15.625 C0.55275873 17.99310318 -0.15291134 19.37707953 -2.25 20.875 C-6.05621288 22.14373763 -8.91035239 22.35711294 -12.62890625 20.64453125 C-18.21708573 17.39558969 -18.21708573 17.39558969 -19.20703125 14.69921875 C-19.69073281 11.27461169 -20.11082028 8.03880667 -19.5 4.625 C-14.10168212 -2.27285062 -7.85913215 -4.32252269 0 0 Z " fill="#161616" transform="translate(254.5,173.375)"/>
<path d="M0 0 C3.375 2 3.375 2 6 4 C5.67 4.99 5.34 5.98 5 7 C2.35096247 7.60549429 0.0387632 8.00090147 -2.6875 7.9375 C-5.19860219 7.74010576 -5.19860219 7.74010576 -7 10 C-6.67801034 13.09926819 -6.67801034 13.09926819 -6 16 C-4.96939453 15.94779297 -4.96939453 15.94779297 -3.91796875 15.89453125 C-3.01691406 15.86746094 -2.11585938 15.84039062 -1.1875 15.8125 C-0.29417969 15.77769531 0.59914063 15.74289063 1.51953125 15.70703125 C4.41647515 16.04918998 5.22555028 16.75393573 7 19 C4.57468728 22.26889976 2.55007915 23.3550262 -1.375 23.9375 C-5.70458647 24.22234122 -8.42874629 23.63592536 -12 21 C-14.67741863 16.98387205 -15.69960009 13.79725776 -15 9 C-11.58746873 2.55410759 -7.52669289 -1.07524184 0 0 Z " fill="#121112" transform="translate(514,171)"/>
<path d="M0 0 C1.9375 1.375 1.9375 1.375 3 3 C3 3.99 3 4.98 3 6 C1.02 6.33 -0.96 6.66 -3 7 C-3 6.34 -3 5.68 -3 5 C-3.99 5 -4.98 5 -6 5 C-4.72070154 7.55859692 -3.55728932 7.86148734 -1 9.0625 C2.91525424 10.91525424 2.91525424 10.91525424 4 12 C4.58091286 18.27385892 4.58091286 18.27385892 2.5 20.875 C-0.97577273 22.43909773 -4.18029617 23.12883922 -8 23 C-10.9375 21.8125 -10.9375 21.8125 -13 20 C-13.8125 17.8125 -13.8125 17.8125 -14 16 C-9.58937864 14.9742741 -7.07369424 14.96315288 -3 17 C-4.28163247 14.43673506 -5.42785129 14.17583941 -8 13 C-11.88888889 11.22222222 -11.88888889 11.22222222 -13 9 C-13.45693563 3.63100635 -13.45693563 3.63100635 -11.6875 1.1875 C-7.73413631 -1.59449667 -4.52893966 -0.97048707 0 0 Z " fill="#141415" transform="translate(228,172)"/>
<path d="M0 0 C3 0.125 3 0.125 4 1.125 C4.04063832 2.79117115 4.042721 4.45888095 4 6.125 C5.65 6.125 7.3 6.125 9 6.125 C9 8.105 9 10.085 9 12.125 C7.35 12.125 5.7 12.125 4 12.125 C4 15.425 4 18.725 4 22.125 C5.65 22.125 7.3 22.125 9 22.125 C9 24.105 9 26.085 9 28.125 C7.37536158 28.17895478 5.75021459 28.21777195 4.125 28.25 C2.76761719 28.28480469 2.76761719 28.28480469 1.3828125 28.3203125 C-1 28.125 -1 28.125 -3 26.125 C-3.30059943 23.75990639 -3.49515012 21.38058119 -3.625 19 C-3.69976562 17.71867187 -3.77453125 16.43734375 -3.8515625 15.1171875 C-3.90054687 14.12976563 -3.94953125 13.14234375 -4 12.125 C-4.99 12.125 -5.98 12.125 -7 12.125 C-7 10.145 -7 8.165 -7 6.125 C-6.01 6.125 -5.02 6.125 -4 6.125 C-4.020625 5.320625 -4.04125 4.51625 -4.0625 3.6875 C-3.97206764 -0.02022692 -3.7522321 0.156343 0 0 Z " fill="#151616" transform="translate(477,165.875)"/>
<path d="M0 0 C2.31 0 4.62 0 7 0 C7 7.92 7 15.84 7 24 C10.63 24 14.26 24 18 24 C18 25.98 18 27.96 18 30 C12.06 30 6.12 30 0 30 C0 20.1 0 10.2 0 0 Z " fill="#0F0F0F" transform="translate(140,164)"/>
<path d="M0 0 C2.64 0 5.28 0 8 0 C8.01981934 0.70608398 8.03963867 1.41216797 8.06005859 2.13964844 C8.15540415 5.34346994 8.26504513 8.54664801 8.375 11.75 C8.4059375 12.86117187 8.436875 13.97234375 8.46875 15.1171875 C8.50742187 16.18710938 8.54609375 17.25703125 8.5859375 18.359375 C8.6173584 19.34389648 8.6487793 20.32841797 8.68115234 21.34277344 C9.00430593 24.03588497 9.74440434 25.63482281 11 28 C11 28.99 11 29.98 11 31 C6.16233301 30.58534283 4.14353624 28.5801385 1 25 C-0.27861615 22.44276771 -0.11336609 20.63262898 -0.09765625 17.7734375 C-0.09443359 16.7421875 -0.09121094 15.7109375 -0.08789062 14.6484375 C-0.07951172 13.56820312 -0.07113281 12.48796875 -0.0625 11.375 C-0.05798828 10.28703125 -0.05347656 9.1990625 -0.04882812 8.078125 C-0.03701776 5.38536211 -0.02054778 2.69270812 0 0 Z " fill="#1A1A1B" transform="translate(537,164)"/>
<path d="M0 0 C2.81992717 1.82120296 4.50345478 3.00690956 6 6 C6.04022391 8.3329866 6.04320247 10.66706666 6 13 C4.35 13.33 2.7 13.66 1 14 C0.525625 13.030625 0.05125 12.06125 -0.4375 11.0625 C-1.70193947 8.19522563 -1.70193947 8.19522563 -3 7 C-4.66617115 6.95936168 -6.33388095 6.957279 -8 7 C-8.66 9.31 -9.32 11.62 -10 14 C-13.01031744 14.93423645 -13.86650268 15.04449911 -17 14 C-17.45543387 8.30707666 -16.68246386 5.3984985 -13 1 C-8.68016482 -1.72593373 -4.80988586 -1.20890179 0 0 Z " fill="#111011" transform="translate(329,172)"/>
<path d="M0 0 C2.31 0 4.62 0 7 0 C7 9.9 7 19.8 7 30 C4.69 30 2.38 30 0 30 C0 20.1 0 10.2 0 0 Z " fill="#0C0D0D" transform="translate(339,164)"/>
<path d="M0 0 C0.33 0 0.66 0 1 0 C1 2.64 1 5.28 1 8 C2.19625 7.7525 3.3925 7.505 4.625 7.25 C8.13196703 6.81473814 9.00362601 7.00174586 12.375 8.625 C15.04418589 11.03997771 16.04812128 12.57323662 17 16 C16.360625 16.268125 15.72125 16.53625 15.0625 16.8125 C12.66868314 17.88667752 12.66868314 17.88667752 12 21 C9.80267881 23.11884544 8.47576342 23.93037608 5.4375 24.375 C3 24 3 24 1.125 22.875 C-0.57380864 20.04365227 0.23475879 18.12473492 1 15 C1.33333333 13.66666667 1.66666667 12.33333333 2 11 C2 10.34 2 9.68 2 9 C1.34 9 0.68 9 0 9 C0 6.03 0 3.06 0 0 Z " fill="#171718" transform="translate(424,164)"/>
<path d="M0 0 C5.70589472 -0.45647158 8.60098008 0.30082416 13 4 C16.20219742 7.94937682 16.29402058 11.00165008 16 16 C14.35 15.67 12.7 15.34 11 15 C11.66 14.67 12.32 14.34 13 14 C13 13.01 13 12.02 13 11 C9.78504624 11.68264644 9.78504624 11.68264644 8.6875 14.5625 C8.130625 15.366875 7.57375 16.17125 7 17 C3.9375 17.4375 3.9375 17.4375 1 17 C0.34 16.34 -0.32 15.68 -1 15 C-0.625 11.375 -0.625 11.375 0 8 C0.99 7.67 1.98 7.34 3 7 C2.34 5.68 1.68 4.36 1 3 C1.33 2.67 1.66 2.34 2 2 C1.34 1.34 0.68 0.68 0 0 Z " fill="#181718" transform="translate(452,171)"/>
<path d="M0 0 C2 2 2 2 2.375 4.9375 C2 8 2 8 0 9.875 C-0.99 10.431875 -0.99 10.431875 -2 11 C-1.34 11.66 -0.68 12.32 0 13 C0 14.33333333 0 15.66666667 0 17 C-7.78460886 16.96608014 -7.78460886 16.96608014 -10.67578125 14.66796875 C-14.31840724 10.25168769 -15.1219751 7.61085439 -15 2 C-14.67 2.66 -14.34 3.32 -14 4 C-11.41269226 3.52086894 -9.8072651 2.87645199 -7.5625 1.4375 C-4.71523587 -0.15974573 -3.20928735 -0.43368748 0 0 Z " fill="#181819" transform="translate(300,178)"/>
<path d="M0 0 C3.375 2 3.375 2 6 5 C6.76636955 8.01001726 6.98649368 10.90029928 7 14 C6.67 14 6.34 14 6 14 C5.67 12.35 5.34 10.7 5 9 C4.01 9 3.02 9 2 9 C0.68 11.31 -0.64 13.62 -2 16 C-4.875 16.125 -4.875 16.125 -8 16 C-10 14 -10 14 -10.3125 11.125 C-9.9736202 7.73620199 -9.27183419 6.46115371 -7 4 C-7.66 2.68 -8.32 1.36 -9 0 C-5.77186065 -1.61406968 -3.45147544 -0.80534427 0 0 Z " fill="#181819" transform="translate(205,172)"/>
<path d="M0 0 C2.31 0 4.62 0 7 0 C7 7.26 7 14.52 7 22 C4.69 22 2.38 22 0 22 C0 14.74 0 7.48 0 0 Z " fill="#0F1012" transform="translate(489,172)"/>
<path d="M0 0 C0.78375 0.04125 1.5675 0.0825 2.375 0.125 C4.71491708 3.78112044 4.74937949 6.85707376 4.375 11.125 C2.72360695 14.6636994 1.65894771 15.93570153 -1.625 18.125 C-3.1484375 16.90234375 -3.1484375 16.90234375 -4.625 15.125 C-4.6640625 13.00390625 -4.6640625 13.00390625 -4.25 10.6875 C-3.80873477 8.13075734 -3.52746832 6.48456679 -4.2109375 3.96484375 C-4.41589844 3.05412109 -4.41589844 3.05412109 -4.625 2.125 C-2.625 0.125 -2.625 0.125 0 0 Z " fill="#111112" transform="translate(409.625,174.875)"/>
<path d="M0 0 C2.5 0.125 2.5 0.125 3.5 1.125 C3.85536226 6.45543395 3.94866826 9.78223256 0.5 14.125 C-2.5 16.125 -2.5 16.125 -5.1875 15.75 C-5.950625 15.54375 -6.71375 15.3375 -7.5 15.125 C-7.17 14.465 -6.84 13.805 -6.5 13.125 C-7.49 12.465 -8.48 11.805 -9.5 11.125 C-8.695625 10.774375 -7.89125 10.42375 -7.0625 10.0625 C-4.11635358 8.27722131 -4.11635358 8.27722131 -3.75 4.5 C-3.6675 3.38625 -3.585 2.2725 -3.5 1.125 C-2.5 0.125 -2.5 0.125 0 0 Z M-11.5 12.125 C-9.5 13.125 -9.5 13.125 -9.5 13.125 Z " fill="#101010" transform="translate(305.5,177.875)"/>
<path d="M0 0 C0.33 0 0.66 0 1 0 C1 9.9 1 19.8 1 30 C0.67 30 0.34 30 0 30 C-0.33 28.35 -0.66 26.7 -1 25 C-1.33 26.65 -1.66 28.3 -2 30 C-2.33 30 -2.66 30 -3 30 C-3 22.74 -3 15.48 -3 8 C-5.31 8 -7.62 8 -10 8 C-10 7.67 -10 7.34 -10 7 C-5.545 6.505 -5.545 6.505 -1 6 C-0.67 4.02 -0.34 2.04 0 0 Z " fill="#CFD0D0" transform="translate(187,164)"/>
<path d="M0 0 C0.99 0.103125 1.98 0.20625 3 0.3125 C5 3.3125 5 3.3125 4.6875 6.4375 C4 9.3125 4 9.3125 3 10.3125 C0.0625 10.5625 0.0625 10.5625 -3 10.3125 C-5.14915785 7.08876323 -5.38286803 6.04546326 -5 2.3125 C-3 0.3125 -3 0.3125 0 0 Z " fill="#ECECEC" transform="translate(650,177.6875)"/>
<path d="M0 0 C0.99 0.103125 1.98 0.20625 3 0.3125 C5 3.3125 5 3.3125 4.625 6.5 C4.41875 7.428125 4.2125 8.35625 4 9.3125 C0.625 9.9375 0.625 9.9375 -3 10.3125 C-5 8.3125 -5 8.3125 -5.25 5.3125 C-4.90578549 1.18192588 -4.11441953 0.42858537 0 0 Z " fill="#EAEAEA" transform="translate(172,177.6875)"/>
<path d="M0 0 C1.010625 0.0825 2.02125 0.165 3.0625 0.25 C5.0625 3.25 5.0625 3.25 4.75 5.8125 C4.0625 8.25 4.0625 8.25 3.0625 10.25 C0.1875 10.375 0.1875 10.375 -2.9375 10.25 C-3.5975 9.59 -4.2575 8.93 -4.9375 8.25 C-4.24551053 0.36132005 -4.24551053 0.36132005 0 0 Z " fill="#E6E7E7" transform="translate(455.9375,177.75)"/>
<path d="M0 0 C3.0625 0.1875 3.0625 0.1875 5.0625 2.1875 C5.3125 5.1875 5.3125 5.1875 5.0625 8.1875 C3.0625 10.1875 3.0625 10.1875 0.625 10.5 C-1.9375 10.1875 -1.9375 10.1875 -3.8125 9.0625 C-4.9375 7.1875 -4.9375 7.1875 -4.6875 4.0625 C-3.68914628 0.23547742 -3.68914628 0.23547742 0 0 Z " fill="#EAEAEA" transform="translate(428.9375,177.8125)"/>
<path d="M0 0 C2.5 0.25 2.5 0.25 4.5 2.25 C4.75 5.25 4.75 5.25 4.5 8.25 C2.5 10.25 2.5 10.25 -0.5 10.5625 C-1.49 10.459375 -2.48 10.35625 -3.5 10.25 C-5.5 7.25 -5.5 7.25 -5.25 4.6875 C-4.24098289 1.40819438 -3.4742892 0.34742892 0 0 Z " fill="#ECECEC" transform="translate(297.5,177.75)"/>
<path d="M0 0 C1.2375 0.1546875 1.2375 0.1546875 2.5 0.3125 C4.5 3.3125 4.5 3.3125 4.1875 6.4375 C3.5 9.3125 3.5 9.3125 2.5 10.3125 C-0.4375 10.5625 -0.4375 10.5625 -3.5 10.3125 C-5.5 7.3125 -5.5 7.3125 -5.25 4.75 C-4.24152534 1.47245737 -3.45334922 0.43166865 0 0 Z " fill="#ECEDED" transform="translate(402.5,177.6875)"/>
<path d="M0 0 C2.5 0.25 2.5 0.25 4.5 2.25 C4.83333333 7.58333333 4.83333333 7.58333333 3.5 10.25 C0.625 10.375 0.625 10.375 -2.5 10.25 C-4.5 8.25 -4.5 8.25 -4.75 5.25 C-4.43608753 1.48305032 -3.83691092 0.38369109 0 0 Z " fill="#F2F2F2" transform="translate(199.5,177.75)"/>
<path d="M0 0 C2.5 0.25 2.5 0.25 4.5 2.25 C4.75 5.25 4.75 5.25 4.5 8.25 C2.5 10.25 2.5 10.25 0 10.5 C-2.5 10.25 -2.5 10.25 -4.5 8.25 C-4.75 5.25 -4.75 5.25 -4.5 2.25 C-2.5 0.25 -2.5 0.25 0 0 Z " fill="#F1F2F2" transform="translate(323.5,177.75)"/>
<path d="M0 0 C0.33 0 0.66 0 1 0 C1.165 1.0725 1.33 2.145 1.5 3.25 C2.20499298 5.84374281 2.69138137 6.78144762 4.9140625 8.35546875 C6.91719422 9.3358 8.91193558 10.21818983 11 11 C11 11.66 11 12.32 11 13 C10.14728516 12.82210937 10.14728516 12.82210937 9.27734375 12.640625 C3.05114653 11.60119308 0.1581464 12.37832274 -5 16 C-4.67 15.175 -4.34 14.35 -4 13.5 C-2.83217191 9.4126017 -2.8541115 6.23076656 -3 2 C-2.34 2 -1.68 2 -1 2 C-0.67 1.34 -0.34 0.68 0 0 Z " fill="#E5E5E5" transform="translate(214,176)"/>
<path d="M0 0 C3.16717283 1.58358642 4.73268318 2.45263699 6.3125 5.6875 C6.6528125 6.8321875 6.6528125 6.8321875 7 8 C1.94997778 9.03590199 -2.87416389 9.10251672 -8 9 C-6.83998378 5.51995133 -5.90589852 5.05122249 -3 3 C-1.98198643 2.01834406 -0.9753197 1.02408568 0 0 Z " fill="#484747" transform="translate(607,172)"/>
<path d="M0 0 C2.97 0.495 2.97 0.495 6 1 C6 4 6 4 4.78125 5.640625 C2.60994849 7.29767089 1.20402655 7.51565103 -1.5 7.75 C-2.2734375 7.82734375 -3.046875 7.9046875 -3.84375 7.984375 C-6 8 -6 8 -9 7 C-8.67 6.01 -8.34 5.02 -8 4 C-6.35 4.33 -4.7 4.66 -3 5 C-2.01 3.35 -1.02 1.7 0 0 Z " fill="#181819" transform="translate(514,187)"/>
<path d="M0 0 C5.29441695 -0.50423019 7.81413519 0.81076967 12 4 C11.67 4.99 11.34 5.98 11 7 C7.62182575 7.84454356 5.32534757 8.10844919 2 7 C1.34 4.69 0.68 2.38 0 0 Z " fill="#19191A" transform="translate(508,171)"/>
<path d="M0 0 C0.53625 0.268125 1.0725 0.53625 1.625 0.8125 C0.635 1.9571875 0.635 1.9571875 -0.375 3.125 C-2.67350538 5.65527939 -2.67350538 5.65527939 -2.375 8.8125 C-4.25 9.875 -4.25 9.875 -6.375 10.8125 C-7.035 10.4825 -7.695 10.1525 -8.375 9.8125 C-8.75 7.625 -8.75 7.625 -8.375 4.8125 C-3.50691489 -0.2768617 -3.50691489 -0.2768617 0 0 Z " fill="#181719" transform="translate(294.375,172.1875)"/>
<path d="M0 0 C0.66 0.99 1.32 1.98 2 3 C-1.90028225 5.60018816 -5.47434569 5.15085514 -10 5 C-9.67 3.35 -9.34 1.7 -9 0 C-5.68518735 -1.10493755 -3.33868884 -1.05432279 0 0 Z " fill="#171716" transform="translate(611,189)"/>
<path d="M0 0 C2.625 0.375 2.625 0.375 5 1 C5.625 3.375 5.625 3.375 6 6 C5.34 6.66 4.68 7.32 4 8 C1.375 7.625 1.375 7.625 -1 7 C-1.625 4.625 -1.625 4.625 -2 2 C-1.34 1.34 -0.68 0.68 0 0 Z " fill="#262728" transform="translate(78,175)"/>
<path d="M0 0 C0.33 0 0.66 0 1 0 C2.39130435 9.2173913 2.39130435 9.2173913 0 14 C-6.27 14 -12.54 14 -19 14 C-19 13.67 -19 13.34 -19 13 C-13.06 13 -7.12 13 -1 13 C-1 11.02 -1 9.04 -1 7 C-4.63 7 -8.26 7 -12 7 C-12 6.67 -12 6.34 -12 6 C-8.04 6 -4.08 6 0 6 C0 4.02 0 2.04 0 0 Z " fill="#9D9D9E" transform="translate(159,181)"/>
<path d="M0 0 C0.36923077 6.52307692 0.36923077 6.52307692 -1.5 8.9375 C-1.995 9.288125 -2.49 9.63875 -3 10 C-4.98 9.34 -6.96 8.68 -9 8 C-8.67 7.34 -8.34 6.68 -8 6 C-7.34 6 -6.68 6 -6 6 C-6 4.35 -6 2.7 -6 1 C-5.34 1.33 -4.68 1.66 -4 2 C-1 0 -1 0 0 0 Z " fill="#0B0B0D" transform="translate(441,180)"/>
<path d="M0 0 C1.4540625 0.0309375 1.4540625 0.0309375 2.9375 0.0625 C1.9475 0.3925 0.9575 0.7225 -0.0625 1.0625 C0.2675 2.0525 0.5975 3.0425 0.9375 4.0625 C0 6.75 0 6.75 -1.0625 9.0625 C-2.3825 8.7325 -3.7025 8.4025 -5.0625 8.0625 C-5.3925 9.0525 -5.7225 10.0425 -6.0625 11.0625 C-5.4025 11.3925 -4.7425 11.7225 -4.0625 12.0625 C-5.0525 12.0625 -6.0425 12.0625 -7.0625 12.0625 C-7.0625 10.0825 -7.0625 8.1025 -7.0625 6.0625 C-6.0725 6.0625 -5.0825 6.0625 -4.0625 6.0625 C-4.083125 5.258125 -4.10375 4.45375 -4.125 3.625 C-4.03366838 -0.11959638 -3.80090148 0.07756942 0 0 Z " fill="#262527" transform="translate(477.0625,165.9375)"/>
<path d="M0 0 C1.99954746 -0.04254356 4.00041636 -0.04080783 6 0 C7 1 7 1 7.125 3.5 C7 6 7 6 6 7 C4.00041636 7.04080783 1.99954746 7.04254356 0 7 C0 4.69 0 2.38 0 0 Z " fill="#E0E1E1" transform="translate(371,171)"/>
<path d="M0 0 C0 1.65 0 3.3 0 5 C-4.29 5 -8.58 5 -13 5 C-12.34 4.34 -11.68 3.68 -11 3 C-10.01 3 -9.02 3 -8 3 C-8 2.34 -8 1.68 -8 1 C-3.375 -1.125 -3.375 -1.125 0 0 Z " fill="#0D0C0E" transform="translate(614,180)"/>
<path d="M0 0 C1.15811981 2.83470023 1.05503177 3.86300189 -0.109375 6.76171875 C-0.65078125 7.72722656 -1.1921875 8.69273437 -1.75 9.6875 C-2.28109375 10.66074219 -2.8121875 11.63398438 -3.359375 12.63671875 C-5 15 -5 15 -8 16 C-8.73323796 18.01508358 -8.73323796 18.01508358 -9 20 C-10.1577506 16.52674819 -10.06866652 13.63932552 -10 10 C-9.67 11.32 -9.34 12.64 -9 14 C-8.34 14 -7.68 14 -7 14 C-6.72414063 13.44828125 -6.44828125 12.8965625 -6.1640625 12.328125 C-4.109375 8.21875 -2.0546875 4.109375 0 0 Z " fill="#605D63" transform="translate(104,182)"/>
<path d="M0 0 C2.875 -0.125 2.875 -0.125 6 0 C8 2 8 2 8 5 C6.02 5.33 4.04 5.66 2 6 C2 5.34 2 4.68 2 4 C0.68 4 -0.64 4 -2 4 C-1.34 2.68 -0.68 1.36 0 0 Z " fill="#121113" transform="translate(248,173)"/>
<path d="M0 0 C0.99 0.33 1.98 0.66 3 1 C4.48123547 1.0806622 5.96582204 1.10761193 7.44921875 1.09765625 C8.29677734 1.09443359 9.14433594 1.09121094 10.01757812 1.08789062 C11.33918945 1.07532227 11.33918945 1.07532227 12.6875 1.0625 C13.58017578 1.05798828 14.47285156 1.05347656 15.39257812 1.04882812 C17.59511987 1.03704983 19.79752599 1.02060164 22 1 C17.98496032 5.01503968 10.88488315 4.05613489 5.5 4.0625 C3.6666171 4.04661673 1.83324547 4.02749868 0 4 C0 2.68 0 1.36 0 0 Z " fill="#79797B" transform="translate(72,200)"/>
<path d="M0 0 C0.33 0 0.66 0 1 0 C1.12375 0.94875 1.2475 1.8975 1.375 2.875 C1.71687177 6.08667191 1.71687177 6.08667191 4 8 C4.26991906 10.68839385 4.08737357 13.29141936 4 16 C3.34 16.33 2.68 16.66 2 17 C1.34 18.32 0.68 19.64 0 21 C0 14.07 0 7.14 0 0 Z " fill="#E5E6E7" transform="translate(496,172)"/>
<path d="M0 0 C1.32 0.33 2.64 0.66 4 1 C4 3.31 4 5.62 4 8 C2.68 7.67 1.36 7.34 0 7 C-0.33 7.66 -0.66 8.32 -1 9 C-1.66 8.67 -2.32 8.34 -3 8 C-2.45276317 4.62537285 -1.9451 2.91765 0 0 Z " fill="#0B0B0D" transform="translate(207,180)"/>
<path d="M0 0 C1.65 0.33 3.3 0.66 5 1 C5 1.66 5 2.32 5 3 C6.32 2.67 7.64 2.34 9 2 C9 2.99 9 3.98 9 5 C4.545 5.495 4.545 5.495 0 6 C-1 2 -1 2 0 0 Z " fill="#1B1B1A" transform="translate(453,189)"/>
<path d="M0 0 C1.32 0 2.64 0 4 0 C3.67 1.32 3.34 2.64 3 4 C3.99 4.33 4.98 4.66 6 5 C5.34 6.32 4.68 7.64 4 9 C2.68 9 1.36 9 0 9 C-0.33 8.34 -0.66 7.68 -1 7 C-0.34 7 0.32 7 1 7 C0.67 4.69 0.34 2.38 0 0 Z " fill="#0C0C0D" transform="translate(461,182)"/>
<path d="M0 0 C3.69230769 0.69230769 3.69230769 0.69230769 5 2 C5.04063832 3.66617115 5.042721 5.33388095 5 7 C3.02 7 1.04 7 -1 7 C-1.04254356 5.00045254 -1.04080783 2.99958364 -1 1 C-0.67 0.67 -0.34 0.34 0 0 Z " fill="#0A0A0A" transform="translate(567,187)"/>
<path d="M0 0 C2.4375 0.625 2.4375 0.625 5 2 C5.8125 5.125 5.8125 5.125 6 8 C4.02 8 2.04 8 0 8 C0 5.36 0 2.72 0 0 Z " fill="#0B0E0E" transform="translate(276,186)"/>
<path d="M0 0 C0.433125 0.66 0.86625 1.32 1.3125 2 C2.1478125 2.99 2.1478125 2.99 3 4 C3.99 4 4.98 4 6 4 C6.66 2.68 7.32 1.36 8 0 C7.38461538 6.52307692 7.38461538 6.52307692 5.4375 8.9375 C4.963125 9.288125 4.48875 9.63875 4 10 C3.38125 9.525625 2.7625 9.05125 2.125 8.5625 C0.09294454 6.97582559 0.09294454 6.97582559 -2 6 C-1.34 4.02 -0.68 2.04 0 0 Z " fill="#2E2E2F" transform="translate(328,181)"/>
<path d="M0 0 C3 2 3 2 3.51171875 4.1640625 C3.56972656 4.97617188 3.62773438 5.78828125 3.6875 6.625 C3.75324219 7.44226563 3.81898438 8.25953125 3.88671875 9.1015625 C3.92410156 9.72804687 3.96148438 10.35453125 4 11 C3.01 11.495 3.01 11.495 2 12 C1.34 13.32 0.68 14.64 0 16 C0 10.72 0 5.44 0 0 Z " fill="#D3D4D4" transform="translate(588,177)"/>
<path d="M0 0 C0.99 0 1.98 0 3 0 C3.61538462 7.26153846 3.61538462 7.26153846 0.5 11 C-0.325 11.66 -1.15 12.32 -2 13 C-2.66 12.67 -3.32 12.34 -4 12 C-3.525625 11.319375 -3.05125 10.63875 -2.5625 9.9375 C-0.7774364 6.58158044 -0.36846914 3.75838519 0 0 Z " fill="#E2E4E4" transform="translate(414,179)"/>
<path d="M0 0 C2.31 0 4.62 0 7 0 C7 1.65 7 3.3 7 5 C4.69 5 2.38 5 0 5 C0 3.35 0 1.7 0 0 Z " fill="#100F10" transform="translate(489,164)"/>
<path d="M0 0 C0.66 0 1.32 0 2 0 C0.45614871 4.14032846 -1.51028938 7.93553053 -3.625 11.8125 C-4.11226562 12.7087207 -4.11226562 12.7087207 -4.609375 13.62304688 C-5.40379151 15.08337135 -6.20155376 16.54187491 -7 18 C-8 16 -8 16 -7.109375 13.3203125 C-6.66078125 12.26585937 -6.2121875 11.21140625 -5.75 10.125 C-5.31171875 9.07570312 -4.8734375 8.02640625 -4.421875 6.9453125 C-3.1506113 4.31198055 -1.95085779 2.17111593 0 0 Z " fill="#4E4C55" transform="translate(62,160)"/>
<path d="M0 0 C0.33 0 0.66 0 1 0 C1 2.64 1 5.28 1 8 C1.78375 8.061875 2.5675 8.12375 3.375 8.1875 C4.24125 8.455625 5.1075 8.72375 6 9 C7.3125 11.5625 7.3125 11.5625 8 14 C6.35 14 4.7 14 3 14 C2.67 12.35 2.34 10.7 2 9 C1.34 9 0.68 9 0 9 C0 6.03 0 3.06 0 0 Z " fill="#2D2D2F" transform="translate(424,164)"/>
<path d="M0 0 C0 3 0 3 -2 5.1875 C-2.66 5.785625 -3.32 6.38375 -4 7 C-4.99 6.34 -5.98 5.68 -7 5 C-6.67 4.01 -6.34 3.02 -6 2 C-6.66 1.67 -7.32 1.34 -8 1 C-5.29120665 -0.35439668 -2.99066732 -0.06501451 0 0 Z " fill="#1F2020" transform="translate(326,171)"/>
<path d="M0 0 C0 1.33333333 0 2.66666667 0 4 C-2.97 3.67 -5.94 3.34 -9 3 C-9 2.01 -9 1.02 -9 0 C-5.62182575 -0.84454356 -3.32534757 -1.10844919 0 0 Z " fill="#222222" transform="translate(300,191)"/>
<path d="M0 0 C0.66 0.33 1.32 0.66 2 1 C2.4140625 3.06640625 2.4140625 3.06640625 2.625 5.5625 C2.69976562 6.38878906 2.77453125 7.21507812 2.8515625 8.06640625 C2.90054688 8.70449219 2.94953125 9.34257812 3 10 C2.67 10 2.34 10 2 10 C1.67 8.35 1.34 6.7 1 5 C0.01 5 -0.98 5 -2 5 C-3.70532323 6.94009522 -3.70532323 6.94009522 -5 9 C-5 7.02 -5 5.04 -5 3 C-3.35 2.67 -1.7 2.34 0 2 C0 1.34 0 0.68 0 0 Z " fill="#262628" transform="translate(209,176)"/>
<path d="M0 0 C-0.928125 0.4021875 -0.928125 0.4021875 -1.875 0.8125 C-4.2995233 1.95556848 -4.2995233 1.95556848 -6 5 C-4.68 5.33 -3.36 5.66 -2 6 C-3.65 6 -5.3 6 -7 6 C-7 4.35 -7 2.7 -7 1 C-8.65 1.33 -10.3 1.66 -12 2 C-9.67178678 -2.65642643 -4.2230553 -0.62307373 0 0 Z " fill="#232324" transform="translate(252,172)"/>
<path d="M0 0 C0.33 0.99 0.66 1.98 1 3 C1.66 2.67 2.32 2.34 3 2 C3 3.65 3 5.3 3 7 C1.02 7 -0.96 7 -3 7 C-3 5.68 -3 4.36 -3 3 C-2.34 3 -1.68 3 -1 3 C-0.67 2.01 -0.34 1.02 0 0 Z " fill="#080B0B" transform="translate(492,187)"/>
<path d="M0 0 C4.62 0 9.24 0 14 0 C9.55775026 2.22112487 6.88356183 2.60616437 2 3 C1.34 2.67 0.68 2.34 0 2 C0 1.34 0 0.68 0 0 Z " fill="#DCDEDE" transform="translate(600,186)"/>
<path d="M0 0 C0.78375 0.185625 1.5675 0.37125 2.375 0.5625 C4.97089775 1.25962266 4.97089775 1.25962266 7 0 C7.66 0.33 8.32 0.66 9 1 C8.67 1.99 8.34 2.98 8 4 C5.03 3.67 2.06 3.34 -1 3 C-0.67 2.01 -0.34 1.02 0 0 Z " fill="#2A2A2B" transform="translate(506,191)"/>
<path d="M0 0 C3 1 3 1 4.16796875 2.7421875 C4.50441406 3.44601563 4.84085938 4.14984375 5.1875 4.875 C5.53167969 5.57367188 5.87585937 6.27234375 6.23046875 6.9921875 C7 9 7 9 7 12 C6.01287122 10.75627811 5.03560095 9.50472782 4.0625 8.25 C3.51722656 7.55390625 2.97195312 6.8578125 2.41015625 6.140625 C1.02574346 4.03907872 0.43713013 2.45678201 0 0 Z " fill="#3F3C45" transform="translate(55,184)"/>
<path d="M0 0 C1.58409994 0.11487748 3.16728963 0.24234508 4.75 0.375 C6.07257813 0.47941406 6.07257813 0.47941406 7.421875 0.5859375 C9.99066382 0.99850055 11.75841015 1.71160957 14 3 C14 3.33 14 3.66 14 4 C9.13103697 3.40380045 4.67209049 2.43023178 0 1 C0 0.67 0 0.34 0 0 Z " fill="#535355" transform="translate(60,184)"/>
<path d="M0 0 C0.66 0.33 1.32 0.66 2 1 C2 3.31 2 5.62 2 8 C0.35 7.67 -1.3 7.34 -3 7 C-2.34 6.67 -1.68 6.34 -1 6 C-0.34227572 2.97065509 -0.34227572 2.97065509 0 0 Z " fill="#212122" transform="translate(466,179)"/>
<path d="M0 0 C2.1385485 2.1385485 2.42655063 3.13275314 3 6 C0 7 0 7 -3 6 C-1.125 1.125 -1.125 1.125 0 0 Z " fill="#0F0F11" transform="translate(623,178)"/>
<path d="M0 0 C1.65 0 3.3 0 5 0 C4.01 0.495 4.01 0.495 3 1 C3.99 2.32 4.98 3.64 6 5 C3.69 5 1.38 5 -1 5 C-0.67 3.35 -0.34 1.7 0 0 Z " fill="#0B0B0B" transform="translate(602,189)"/>
<path d="M0 0 C0.99 0.33 1.98 0.66 3 1 C1.02 3.31 -0.96 5.62 -3 8 C-3.66 7.01 -4.32 6.02 -5 5 C-4.01 4.67 -3.02 4.34 -2 4 C-2 3.34 -2 2.68 -2 2 C-1.34 2 -0.68 2 0 2 C0 1.34 0 0.68 0 0 Z " fill="#0B0B0B" transform="translate(293,172)"/>
<path d="M0 0 C0.66 0.33 1.32 0.66 2 1 C0.88200014 2.33920838 -0.24461897 3.67122556 -1.375 5 C-2.00148438 5.7425 -2.62796875 6.485 -3.2734375 7.25 C-4.12808594 8.11625 -4.12808594 8.11625 -5 9 C-5.66 9 -6.32 9 -7 9 C-5.44499019 5.18315774 -2.96404505 2.80804268 0 0 Z " fill="#626066" transform="translate(83,160)"/>
<path d="M0 0 C0.66 0 1.32 0 2 0 C2 0.66 2 1.32 2 2 C1.34 2 0.68 2 0 2 C-0.33 4.31 -0.66 6.62 -1 9 C-1.99 8.67 -2.98 8.34 -4 8 C-2.25 2.25 -2.25 2.25 0 0 Z " fill="#232223" transform="translate(316,173)"/>
<path d="M0 0 C2.475 0.99 2.475 0.99 5 2 C4.38125 2.28875 3.7625 2.5775 3.125 2.875 C0.86674235 3.93720042 0.86674235 3.93720042 -1 6 C-3.125 5.625 -3.125 5.625 -5 5 C-4.01 5 -3.02 5 -2 5 C-1.34 3.35 -0.68 1.7 0 0 Z " fill="#1E1E20" transform="translate(406,172)"/>
<path d="M0 0 C3.53586014 3.17320782 5.58578031 5.16743695 6 10 C5.34 10 4.68 10 4 10 C3.32845067 8.71086513 2.66291141 7.41859796 2 6.125 C1.62875 5.40570313 1.2575 4.68640625 0.875 3.9453125 C0 2 0 2 0 0 Z " fill="#333239" transform="translate(99,164)"/>
<path d="M0 0 C2.97 0.99 5.94 1.98 9 3 C9 3.33 9 3.66 9 4 C6.03 4 3.06 4 0 4 C0 2.68 0 1.36 0 0 Z " fill="#4F4F51" transform="translate(72,200)"/>
<path d="M0 0 C1.95216435 1.95216435 2.84826645 3.53199953 4 6 C3.01 6.495 3.01 6.495 2 7 C-1 5 -1 5 -1.6875 2.875 C-1.790625 2.25625 -1.89375 1.6375 -2 1 C-1.34 0.67 -0.68 0.34 0 0 Z " fill="#1F1D21" transform="translate(216,187)"/>
<path d="M0 0 C1.65 0 3.3 0 5 0 C4.01 1.98 3.02 3.96 2 6 C1.01 5.34 0.02 4.68 -1 4 C-0.67 2.68 -0.34 1.36 0 0 Z " fill="#232123" transform="translate(618,187)"/>
<path d="M0 0 C2.31 0 4.62 0 7 0 C7 0.99 7 1.98 7 3 C4.69 3 2.38 3 0 3 C0 2.01 0 1.02 0 0 Z " fill="#A5A5A6" transform="translate(489,169)"/>
<path d="M0 0 C1.65 0 3.3 0 5 0 C5 1.98 5 3.96 5 6 C3.0625 5.25 3.0625 5.25 1 4 C0.25 1.875 0.25 1.875 0 0 Z " fill="#2E2D2F" transform="translate(481,188)"/>
<path d="M0 0 C0.66 0.33 1.32 0.66 2 1 C1.67 2.98 1.34 4.96 1 7 C0.01 7 -0.98 7 -2 7 C-2.33 6.01 -2.66 5.02 -3 4 C-2.34 4 -1.68 4 -1 4 C-0.67 2.68 -0.34 1.36 0 0 Z " fill="#141313" transform="translate(460,185)"/>
<path d="M0 0 C1.98 0.66 3.96 1.32 6 2 C6 2.99 6 3.98 6 5 C3.03824877 4.38722388 1.61941217 3.74627478 -1 2 C-0.67 1.34 -0.34 0.68 0 0 Z " fill="#BBBCBD" transform="translate(621,184)"/>
<path d="M0 0 C1.32 0.33 2.64 0.66 4 1 C3.01 1 2.02 1 1 1 C1.33 1.99 1.66 2.98 2 4 C0.02 4.99 0.02 4.99 -2 6 C-2 3 -2 3 0 0 Z " fill="#212121" transform="translate(427,188)"/>
<path d="M0 0 C2 3 2 3 3 5 C5.52733235 5.65555119 5.52733235 5.65555119 8 6 C5.35261084 7.4606285 4.10551666 8 1 8 C0.67 5.36 0.34 2.72 0 0 Z " fill="#212120" transform="translate(644,182)"/>
<path d="M0 0 C0.99 1.32 1.98 2.64 3 4 C2.34 5.32 1.68 6.64 1 8 C-0.42944945 5.64561267 -1.08661261 4.51967567 -0.625 1.75 C-0.41875 1.1725 -0.2125 0.595 0 0 Z " fill="#111113" transform="translate(289,185)"/>
<path d="M0 0 C1.98 0 3.96 0 6 0 C5.01 0.33 4.02 0.66 3 1 C3.33 1.99 3.66 2.98 4 4 C2.68 4.33 1.36 4.66 0 5 C0 3.35 0 1.7 0 0 Z " fill="#1E1E20" transform="translate(474,166)"/>
<path d="M0 0 C1.5 1.3125 1.5 1.3125 3 3 C3 3.99 3 4.98 3 6 C1.35 5.67 -0.3 5.34 -2 5 C-1.34 3.35 -0.68 1.7 0 0 Z " fill="#1B1A1B" transform="translate(545,189)"/>
<path d="M0 0 C2.31 0.33 4.62 0.66 7 1 C7.33 1.99 7.66 2.98 8 4 C6.35 3.67 4.7 3.34 3 3 C3 2.34 3 1.68 3 1 C2.01 0.67 1.02 0.34 0 0 Z " fill="#DDDEDD" transform="translate(217,185)"/>
</svg>
